<svg xmlns="http://www.w3.org/2000/svg" version="1.1" xmlns:xlink="http://www.w3.org/1999/xlink" xmlns:svgjs="http://svgjs.dev/svgjs" width="1500" height="1500" viewBox="0 0 1500 1500"><rect width="1500" height="1500" fill="#000000"></rect><g transform="matrix(0.6666666666666666,0,0,0.6666666666666666,249.39393939393938,435.99032258064517)"><svg viewBox="0 0 396 248" data-background-color="#000000" preserveAspectRatio="xMidYMid meet" height="939" width="1500" xmlns="http://www.w3.org/2000/svg" xmlns:xlink="http://www.w3.org/1999/xlink"><g id="tight-bounds" transform="matrix(1,0,0,1,0.2400000000000091,0.4000000000000057)"><svg viewBox="0 0 395.52 247.2" height="247.2" width="395.52"><g><svg></svg></g><g><svg viewBox="0 0 395.52 247.2" height="247.2" width="395.52"><g transform="matrix(1,0,0,1,79.61537802197803,47.215199999999996)"><svg viewBox="0 0 236.28924395604392 152.7696" height="152.7696" width="236.28924395604392"><g><svg viewBox="0 0 236.28924395604392 152.7696" height="152.7696" width="236.28924395604392"><g><svg viewBox="0 0 236.28924395604392 152.7696" height="152.7696" width="236.28924395604392"><g><svg viewBox="0 0 236.28924395604392 152.7696" height="152.7696" width="236.28924395604392"><g id="textblocktransform"><svg viewBox="0 0 236.28924395604392 152.7696" height="152.7696" width="236.28924395604392" id="textblock"><g><svg viewBox="0 0 236.28924395604392 152.7696" height="152.7696" width="236.28924395604392"><g transform="matrix(1,0,0,1,0,0)"><svg width="236.28924395604392" viewBox="3.45 -35.7 56.3 36.400000000000006" height="152.7696" data-palette-color="#ffffff"><path d="M3.45-1.1L3.45-1.1 3.75-4.1 4.05-4.1Q6-2.4 8.45-1.45 10.9-0.5 13.3-0.5L13.3-0.5Q16.7-0.5 18.8-2.38 20.9-4.25 20.9-7.4L20.9-7.4Q20.9-9.15 20.13-10.65 19.35-12.15 17.57-13.7 15.8-15.25 12.7-17.05L12.7-17.05Q10.55-18.3 8.6-19.68 6.65-21.05 5.4-22.88 4.15-24.7 4.15-27.25L4.15-27.25Q4.15-31.05 6.9-33.38 9.65-35.7 14.15-35.7L14.15-35.7Q16.15-35.7 18.45-35.27 20.75-34.85 22-34.2L22-34.2 21.75-31.4 21.45-31.4Q18.6-34.5 14.15-34.5L14.15-34.5Q10.95-34.5 9-32.88 7.05-31.25 7.05-28.5L7.05-28.5Q7.05-26.45 8.13-24.98 9.2-23.5 10.9-22.33 12.6-21.15 14.55-20.05L14.55-20.05Q16.8-18.75 18.93-17.3 21.05-15.85 22.43-13.83 23.8-11.8 23.8-8.75L23.8-8.75Q23.8-5.95 22.5-3.83 21.2-1.7 18.82-0.5 16.45 0.7 13.3 0.7L13.3 0.7Q11.3 0.7 8.6 0.2 5.9-0.3 3.45-1.1ZM59.75 0L55.25 0 38.85-17.95 54.05-35 58.35-35 41.9-19.35 59.75 0ZM37.05 0L33.65 0 33.65-35 37.05-35 37.05 0Z" opacity="1" transform="matrix(1,0,0,1,0,0)" fill="#ffffff" class="wordmark-text-0" data-fill-palette-color="primary" id="text-0"></path></svg></g></svg></g></svg></g></svg></g></svg></g></svg></g></svg></g><g><path d="M241.745 0c68.262 0 123.6 55.338 123.6 123.6 0 68.262-55.338 123.6-123.6 123.6-30.402 0-58.24-10.976-79.769-29.183l11.148 0c19.26 14.022 42.974 22.294 68.621 22.295 64.458 0 116.712-52.254 116.711-116.712 0-64.458-52.254-116.712-116.711-116.712-25.647 0-49.361 8.272-68.621 22.295l-11.148 0c21.528-18.206 49.366-29.183 79.769-29.183z" fill="#ff8c00" stroke="transparent" data-fill-palette-color="tertiary"></path></g></svg></g><defs></defs></svg><rect width="395.52" height="247.2" fill="none" stroke="none" visibility="hidden"></rect></g></svg></g></svg>